<svg height="24" viewBox="0 0 24 24" width="24" xmlns="http://www.w3.org/2000/svg"><g fill="#9a9a9a" fill-rule="evenodd"><path d="m12 22.13c5.595 0 10.13-4.535 10.13-10.13s-4.535-10.13-10.13-10.13c-5.595 0-10.13 4.535-10.13 10.13s4.535 10.13 10.13 10.13zm0 1.87c-6.627 0-12-5.373-12-12s5.373-12 12-12 12 5.373 12 12-5.373 12-12 12z" fill-rule="nonzero"/><path d="m10.994 11.757c-.66-.337-.99-.853-.99-1.547 0-1.147.928-1.978 2.185-1.978 1.247 0 2.133.831 2.133 1.988 0 .705-.32 1.19-1.02 1.537.814.326 1.236.915 1.236 1.736 0 1.23-.989 2.115-2.36 2.115-1.39 0-2.41-.884-2.41-2.094 0-.505.185-.99.515-1.326.196-.179.35-.284.711-.431zm1.164-2.526c-.515 0-.948.453-.948.979 0 .547.423.989.958.989.526 0 .948-.442.948-.979 0-.547-.432-.989-.958-.989zm-.01 3.094c-.567 0-1.04.494-1.04 1.084 0 .61.463 1.115 1.05 1.115.567 0 1.04-.505 1.04-1.105 0-.61-.463-1.094-1.05-1.094zm-5.717 3.283v-5.126h-1.84v-1.111c.294 0 .93-.023 1.466-.319.537-.296.746-.703.746-.82h1.095v7.376zm10.056-4.428-1.469.006v1.469h1.47v1.466h1.467v-1.466h1.466v-1.47h-1.466v-1.465h-1.468z"/></g></svg>