<?xml version="1.0" encoding="UTF-8"?>
<svg width="95px" height="21px" viewBox="0 0 95 21" version="1.1" xmlns="http://www.w3.org/2000/svg" xmlns:xlink="http://www.w3.org/1999/xlink">
    <!-- Generator: Sketch 58 (84663) - https://sketch.com -->
    <title>Logo</title>
    <desc>Created with Sketch.</desc>
    <g id="Published" stroke="none" stroke-width="1" fill="none" fill-rule="evenodd">
        <g id="1.1-|-Default-&lt;768-Copy-12" transform="translate(-20.000000, -65.000000)" fill="#DDDDDD" fill-rule="nonzero">
            <g id="Logo" transform="translate(20.000000, 65.000000)">
                <path d="M52.3035897,16.3872404 C54.0574359,16.3872404 54.9725214,15.7948304 54.9725214,14.5568348 C54.9725214,13.345427 54.0290171,12.6740843 52.1980342,12.6740843 C51.5192308,12.6740843 50.7080769,12.7280909 49.8189744,12.8626917 L49.8189744,8.77481348 C50.5497436,8.85790043 51.2317949,8.88282652 51.9114103,8.88282652 C53.7951709,8.88282652 54.7354274,8.31783522 54.7354274,7.02998739 C54.7354274,5.76706565 53.8747436,5.17714826 52.0965385,5.17714826 C50.943547,5.17714826 49.4820085,5.50118739 47.6794444,6.0661787 L47.6794444,1.80298696 C49.2790171,1.23633391 51.2114957,0.968793913 53.485,0.968793913 C58.4298718,0.968793913 61.2798718,3.14733391 61.2798718,6.5655313 C61.2798718,8.66430783 59.9482479,10.1964313 57.617906,10.7090778 C60.2080769,11.249143 61.5397009,12.7280909 61.5397009,14.9880561 C61.5397009,18.5358691 58.6409829,20.6047343 53.0952564,20.6047343 C51.2358547,20.6047343 49.4089316,20.3388561 47.5251709,19.8818778 L47.5251709,15.4948865 C49.3845726,16.0598778 50.9516667,16.383917 52.3157692,16.383917 L52.3035897,16.3872404 Z M72.9388889,7.96554652 C76.8363248,7.96554652 79.4248718,10.4132883 79.4248718,14.0184313 C79.4248718,17.893607 76.4693162,20.5839626 71.8143162,20.5839626 C66.3221795,20.5839626 62.7901282,17.0594139 62.7901282,11.2757309 C62.7901282,4.68693522 66.5332906,0.972948261 73.2807265,0.972948261 C74.7260256,0.972948261 76.2687607,1.13912217 77.8602137,1.48808739 L77.8602137,5.76706565 C76.3986752,5.31008739 74.9858547,5.0940613 73.4918376,5.0940613 C70.5119231,5.0940613 69.1234615,6.33205696 69.0503846,9.13208739 C70.1546581,8.27629174 71.3563675,7.9771787 72.9478205,7.9771787 L72.9388889,7.96554652 Z M73.4877778,13.886323 C73.4877778,12.3242883 72.6254701,11.3272448 71.3701709,11.3272448 C70.1148718,11.3272448 69.2769231,12.2960387 69.2769231,13.886323 C69.2769231,15.4450343 70.1148718,16.4138283 71.3701709,16.4138283 C72.651453,16.4138283 73.4877778,15.4450343 73.4877778,13.886323 Z M81.3614103,1.45402174 L94.097906,1.45402174 L94.097906,5.92077652 L87.3179915,5.92077652 L87.3179915,8.74573304 C87.8620085,8.71831435 88.2355128,8.69172652 88.3573077,8.69172652 C92.5632906,8.69172652 94.8449145,10.8769135 94.8449145,14.5576657 C94.8449145,18.3547396 92.0679915,20.6147048 86.6602991,20.6147048 C84.7765385,20.6147048 82.9171368,20.3239004 81.0333761,19.8419961 L81.0333761,15.5879439 C82.4705556,15.99507 83.7291026,16.18617 84.8008974,16.18617 C86.9932051,16.18617 88.1461966,15.4300787 88.1461966,14.0342178 C88.1461966,12.47883 86.9444872,11.6978126 84.4842308,11.6978126 C83.4367949,11.6978126 82.4161538,11.88642 81.343547,12.1547909 L81.343547,1.45402174 L81.3614103,1.45402174 Z" id="Shape"></path>
                <path d="M0,0 L6.45512821,0 L6.45512821,7.92898826 C7.37264957,6.6394787 8.63119658,6.03626739 10.3363248,6.03626739 C14.0892308,6.03626739 16.2149573,8.72413043 16.2149573,13.4991378 C16.2149573,18.0547957 14.0632479,20.7717391 10.4946581,20.7717391 C8.31696581,20.7717391 6.84730769,19.9491783 6.00854701,18.19272 L6.00854701,20.5789774 L0,20.5789774 L0,0 Z M6.27,13.3603826 C6.27,15.4483578 6.7165812,16.4628496 7.87119658,16.4628496 C8.99982906,16.4628496 9.4975641,15.4491887 9.4975641,13.3612135 C9.4975641,11.2840396 9.025,10.26207 7.87119658,10.26207 C6.7165812,10.26207 6.27,11.2840396 6.27,13.3612135 L6.27,13.3603826 Z M32.7157265,14.6814652 L23.7711111,14.6814652 C23.9278205,16.2210665 25.0832479,16.9497391 27.2601282,16.9497391 C28.7817521,16.9497391 30.3561538,16.6531187 31.8761538,16.059047 L31.8761538,19.6484035 C30.3821368,20.269063 28.3359829,20.6205209 25.9488034,20.6205209 C20.4388034,20.6205209 17.4743162,17.9218565 17.4743162,13.1717752 C17.4743162,8.52887609 20.3892735,5.74961739 25.2448291,5.74961739 C30.6281624,5.74961739 32.7230342,8.31285 32.7230342,13.765847 L32.7230342,14.6822961 L32.7157265,14.6814652 Z M27.1017949,11.956213 L27.1017949,11.5241609 C27.1017949,9.93138391 26.5252991,9.01493478 25.4226496,9.01493478 C24.2940171,9.01493478 23.7175214,9.93138391 23.7175214,11.5515796 L23.7175214,11.9553822 L27.1017949,11.9553822 L27.1017949,11.956213 Z M45.4700855,6.12683217 L45.4700855,10.2562539 L42.4601282,10.2562539 L42.4601282,13.6295843 C42.4601282,15.357793 42.725641,16.1678909 44.0174786,16.1678909 C44.3666239,16.1678909 44.8375641,16.10973 45.3897009,15.9767909 L45.3897009,20.0231257 C43.9931197,20.4551778 42.5965385,20.613043 41.1187607,20.613043 C39.2999573,20.613043 37.9033761,20.014817 37.0832906,18.9928474 C36.027735,17.63853 36.0033761,15.9435561 36.0033761,13.6752822 L36.0033761,10.2520996 L33.6965812,10.2520996 L33.6965812,6.1235087 L35.9944444,6.1235087 L35.9944444,2.99611565 L42.4601282,0.91728 L42.4601282,6.12683217 L45.4700855,6.12683217 Z" id="Shape"></path>
            </g>
        </g>
    </g>
</svg>