<svg height="24px" width="29px" viewBox="0 0 29 24" xmlns="http://www.w3.org/2000/svg"><g fill="none" fill-rule="evenodd"><path d="m18.543 18.449v-8.561l-3.69-1.602.126 11.656z" fill="#a2a2a2"/><path d="m10.193 7.254v-2.066h8.75v-5.155h6.751v5.155h3.17v3.574h-3.17v6.63c.021 1.265.674 2.065 2.003 2.065h1.166v4.378h-5.568c-3.447 0-4.351-1.24-4.351-3.406v-9.723h-3.958v11.24c-.395 1.71-1.859 2.844-4.39 3.403-3.622 1.059-6.99.038-8.176-.506-1.508-.69-2.2-2.087-2.076-4.19l5.157.497c.642 1.45 1.803 1.823 3.48 1.121.738-.545 1.005-1.981.8-4.309-.91 1.258-2.336 1.887-4.28 1.887-2.916 0-4.116-1.887-4.47-2.456-.353-.57-.993-1.564-.993-3.968 0-1.603.331-2.993.994-4.171 1.023-1.54 2.513-2.31 4.469-2.31s3.52.77 4.692 2.31zm-2.653 7.404c1.815 0 2.434-1.323 2.434-2.954 0-1.632-.58-2.954-2.434-2.954s-2.433 1.322-2.433 2.954c0 1.631.619 2.954 2.433 2.954z" fill="#999"/></g></svg>