<svg height="24" viewBox="0 0 57 24" width="57" xmlns="http://www.w3.org/2000/svg"><g fill="none" fill-rule="evenodd"><path d="m5.064 16.279 5.7 5.85 8.648-10.942h37.902v12.796h-52.25zm43.476 2.475v1.624c.748.294 1.288.38 1.937.38.836 0 1.544-.214 2.125-.644.58-.43.87-.948.87-1.556 0-.483-.168-.867-.505-1.153-.337-.282-.832-.533-1.485-.752-.395-.132-.666-.254-.811-.367-.15-.113-.225-.248-.225-.404 0-.16.092-.297.275-.41.183-.112.399-.169.648-.169.504 0 1.03.298 1.579.696v-1.664a5.099 5.099 0 0 0 -1.79-.348c-.837 0-1.508.187-2.016.562-.507.374-.761.834-.761 1.38 0 .43.162.784.487 1.063.32.279.786.53 1.397.757.433.163.728.31.886.442.154.131.23.282.23.451 0 .21-.107.389-.324.536a1.352 1.352 0 0 1 -.78.221c-.594 0-1.068-.175-1.737-.645zm-26.718-4.765v6.783h1.596v-6.783zm6.793-.002v6.779h3.236c.138 0 .418-.031.84-.093.318-.046.555-.12.712-.222a1.72 1.72 0 0 0 .6-.666c.147-.28.22-.596.22-.948 0-.431-.103-.79-.309-1.075-.205-.285-.526-.486-.962-.603.287-.111.505-.262.654-.453a1.63 1.63 0 0 0 .335-1.032c0-.477-.156-.878-.47-1.202-.313-.324-.762-.485-1.347-.485h-3.51zm13.842 5.654.333 1.117h2.189l-2.545-6.771h-2.282l-2.545 6.771h2.138l.328-1.117z" fill="#999"/><circle cx="26.174" cy="17.201" fill="#ccc" r="1.143"/><path d="m26.174 18.435a1.234 1.234 0 1 1 0-2.468 1.234 1.234 0 0 1 0 2.468zm0-.182a1.052 1.052 0 1 0 0-2.104 1.052 1.052 0 0 0 0 2.104z" fill="#888" fill-rule="nonzero"/><circle cx="36.207" cy="17.201" fill="#ccc" r="1.143"/><path d="m36.207 18.435a1.234 1.234 0 1 1 0-2.468 1.234 1.234 0 0 1 0 2.468zm0-.182a1.052 1.052 0 1 0 0-2.104 1.052 1.052 0 0 0 0 2.104z" fill="#888" fill-rule="nonzero"/><circle cx="46.122" cy="17.201" fill="#ccc" r="1.143"/><path d="m46.122 18.435a1.234 1.234 0 1 1 0-2.468 1.234 1.234 0 0 1 0 2.468zm0-.182a1.052 1.052 0 1 0 0-2.104 1.052 1.052 0 0 0 0 2.104z" fill="#888" fill-rule="nonzero"/><path d="m19.983 9.984-9.722 9.828-10.188-9.852 9.764-9.711zm-9.1 6.037c-1.05-1.96-1.574-3.946-1.574-5.961s.524-4 1.575-5.961l.162-.302-.605-.324-.162.302c-1.102 2.058-1.655 4.155-1.655 6.285 0 2.131.553 4.227 1.655 6.285l.162.302.605-.324-.162-.302zm4.727-4.69a2.814 2.814 0 0 1 -.355-1.343c0-.454.118-.9.355-1.344l.09-.168-.336-.18-.09.168a3.194 3.194 0 0 0 -.4 1.524c0 .517.134 1.026.4 1.523l.09.168.336-.18zm-1.15 1.268c-.448-.836-.671-1.682-.671-2.539s.223-1.703.67-2.539l.109-.201-.403-.216-.108.201c-.483.901-.726 1.82-.726 2.755s.243 1.854.726 2.755l.108.201.403-.216zm-1.16 1.123c-.632-1.181-.948-2.377-.948-3.59s.316-2.408.949-3.59l.126-.234-.47-.252-.127.235c-.673 1.257-1.011 2.538-1.011 3.841s.338 2.585 1.011 3.842l.126.235.47-.252-.125-.235zm-1.325 1.27c-.836-1.558-1.252-3.137-1.252-4.739 0-1.601.416-3.18 1.252-4.739l.143-.268-.537-.288-.144.268c-.881 1.646-1.324 3.323-1.324 5.027 0 1.705.443 3.382 1.324 5.027l.144.269.537-.288zm5.123-5.895a.762.762 0 1 0 0 1.524.762.762 0 0 0 0-1.524z" fill="#999"/><path d="m9.112 4.07-.162-.303.604-.324.162.303c1.103 2.057 1.656 4.153 1.656 6.284s-.553 4.228-1.656 6.285l-.162.303-.604-.324.162-.303c1.05-1.96 1.574-3.946 1.574-5.96 0-2.016-.524-4.001-1.574-5.962zm-4.727 4.69-.09-.168.336-.18.09.168c.267.497.4 1.005.4 1.523 0 .517-.133 1.026-.4 1.523l-.09.168-.336-.18.09-.168c.238-.443.356-.89.356-1.343s-.118-.9-.356-1.343zm1.151-1.268-.108-.202.403-.216.108.202c.483.9.725 1.82.725 2.754 0 .935-.242 1.854-.725 2.755l-.108.202-.403-.216.108-.202c.448-.836.671-1.681.671-2.539 0-.857-.223-1.702-.671-2.538zm1.16-1.123-.127-.235.47-.252.126.235c.674 1.257 1.012 2.538 1.012 3.841s-.338 2.585-1.012 3.842l-.126.235-.47-.252.126-.235c.633-1.182.948-2.377.948-3.59s-.315-2.408-.948-3.59zm1.324-1.271-.144-.269.537-.288.144.27c.882 1.644 1.324 3.321 1.324 5.026s-.442 3.382-1.324 5.027l-.144.269-.537-.288.144-.269c.836-1.559 1.252-3.137 1.252-4.739s-.416-3.18-1.252-4.739z" fill="#ccc" fill-rule="nonzero"/><circle cx="2.898" cy="10.231" fill="#ccc" r="1"/><path d="m2.898 11.084a.853.853 0 1 1 0-1.706.853.853 0 0 1 0 1.706zm0-.182a.671.671 0 1 0 0-1.342.671.671 0 0 0 0 1.342z" fill="#888" fill-rule="nonzero"/><path d="m30.505 16.643h.816c.292 0 .496-.057.61-.169.115-.113.172-.275.172-.488 0-.197-.057-.351-.172-.462-.114-.111-.314-.167-.598-.167h-.828zm10.76-.919.756 2.447h-1.493zm-10.76 3.552h.956c.323 0 .55-.064.683-.192a.684.684 0 0 0 .199-.515c0-.2-.066-.362-.197-.484-.13-.121-.36-.182-.689-.182h-.952z" fill="#999"/></g></svg>