<svg height="35" viewBox="0 0 162 35" width="162" xmlns="http://www.w3.org/2000/svg"><g fill="none" fill-rule="evenodd"><path d="m13.65 32.248c-1.035-.317-1.699-1.15-1.482-1.86.218-.71 1.233-1.03 2.27-.713 1.035.317 1.699 1.15 1.482 1.86s-1.233 1.03-2.27.713zm-3.554-1.104c-.335.495-1.271.448-2.092-.105-.253-.17-.904-.553-1.55-.954-.342-.177-.745.036-1.117-.215-.903-.67-2.118-2.13-1.73-2.439.616-.484 1.392 1.062 2.714 1.552.715.257 1.06-.9 2.893.26.821.554 1.216 1.405.882 1.9zm3.37-8.356a2.235 2.235 0 1 1 0-4.47 2.235 2.235 0 0 1 0 4.47zm-10.937-5.932c-.614-.086-.993-1.002-.846-2.046.147-1.043.763-1.82 1.377-1.733.614.086.993 1.002.846 2.046-.147 1.043-.763 1.82-1.377 1.733zm4.086-5.945c-.702-.492-.761-1.62-.131-2.52.63-.901 1.711-1.232 2.414-.74.703.493.762 1.621.132 2.522-.63.9-1.712 1.23-2.415.738zm.372-4.73c-1.485-.506-2.767 2.093-3.347 1.323-.254-.484 1.101-2.724 2.493-2.55.807.122 2-1.462 3.147-1.465.542 0 .956.156.956.78 0 .623-1.23 2.699-3.249 1.913zm-3.937 15.611c-.509 0-1.377-.396-1.377-1.62 0-1.222.185-1.804.868-1.853 1.245-.155.959 1.078 2.32.994.737-.024.732-.903 2.409-.903 1.36 0 1.791 1.418 1.791 2.142 0 .725-.243 1.816-1.828 1.816-1.248 0-1.362-1.091-2.48-1.091-1.066.069-.953.515-1.703.515zm-2.424-.674c-.207.019-.432-.623-.503-1.433s.04-1.481.246-1.5c.207-.017.432.624.503 1.434s-.04 1.481-.246 1.5zm19.457-4.643c-1.246 0-1.984-.854-1.984-1.908 0-1.053.894-2.214 1.948-2.214 1.68-.105 2.439 1.184 3.04 1.1.738-.024 1.881-1.111 3.558-1.111 1.361 0 2.08 1.01 2.08 2.155 0 1.144-.666 2.117-2.467 2.142-1.901.026-1.903-1.255-3.28-1.222-1.064.069-1.393 1.058-2.895 1.058zm-5.403-14.658c-.932.198-1.764.002-1.857-.438-.094-.44.586-.956 1.519-1.154.933-.199 1.764-.003 1.858.437.093.44-.587.956-1.52 1.155zm5.188 3.496c-1.102-.135-1.916-.893-1.818-1.691.098-.8 1.071-1.337 2.173-1.202 1.102.136 1.916.893 1.818 1.692-.098.798-1.07 1.336-2.173 1.2zm-7.08 28.405c.076-.43.907-.643 1.856-.475.949.167 1.656.651 1.58 1.08-.075.43-.906.644-1.855.476-.949-.167-1.656-.651-1.58-1.08zm-4.374-1.498c.119-.244.84-.136 1.612.24.771.376 1.3.879 1.181 1.122-.119.244-.84.136-1.611-.24-.772-.376-1.3-.879-1.182-1.122z" fill="#999"/><path d="m2.406 11.757c-.7-1.201-1.309 1.249-1.613.979-.243-.207.774-2.552.97-2.7.116-.121.588-.075.787-.382.541-.834 1.344-1.273 1.794-.98.45.291.397 1.27-.144 2.103s-1.521 1.41-1.794.98zm11.114-1.072a1.908 1.908 0 0 1 0-3.816c1.68-.105 2.777.859 3.378.774.738-.024 2.216-1.009 3.437-.992a2.072 2.072 0 0 1 0 4.143c-.999 0-2.127-1.363-3.503-1.33-1.066.068-2.23 1.3-3.312 1.221zm-6.234 5.928c-1.246 0-1.725-.853-1.725-1.907s.814-2.07 1.868-2.07c1.68-.105 2.092 1.04 2.693.956.738-.025 1.841-1.24 3.519-1.24 1.36 0 1.957 1.015 1.957 2.159s-.802 2.102-2.382 2.102c-1.377 0-1.825-1.09-3.202-1.057-1.065.069-1.226 1.057-2.728 1.057zm13.156 6.123c-1.246 0-2.21-.52-2.21-2.02s.893-2.214 1.947-2.214c1.68-.105 2.977 1.183 3.578 1.099.738-.024 1.453-1.234 3.13-1.234 1.362 0 1.97 1.135 1.97 2.279s-.476 1.835-2.277 1.86c-1.902.027-1.446-.993-2.823-.96-1.065.068-1.813 1.19-3.315 1.19zm-6.55 5.418c-1.246 0-2.264-.752-2.264-2.079 0-1.326.985-1.68 2.039-1.68 1.816.04 1.962 1.208 3.363.987.737-.025 1.518-.922 3.195-.922 1.36 0 2.09.728 2.09 1.872s-.873 1.929-2.338 1.909c-1.57 0-1.57-.947-2.947-.915-1.065.07-1.636.828-3.137.828zm-4.843-.86c-.648.526-1.742.25-2.443-.617-.7-.865-.744-1.993-.096-2.518.649-.524 1.742-.248 2.444.618.7.865.743 1.993.095 2.518zm10.667-25.637c-.948-.1-1.68-.527-1.635-.954s.85-.692 1.798-.593c.948.1 1.68.527 1.635.954s-.85.693-1.798.593zm5.481 3.926c-.913-.527-1.382-1.423-1.049-2.001.334-.578 1.345-.619 2.258-.092s1.382 1.423 1.049 2.001c-.334.578-1.344.619-2.258.092zm-15.166-3.077c-.797.405-1.535.553-1.649.328-.114-.224.439-.734 1.235-1.14s1.534-.553 1.648-.329c.114.225-.438.735-1.234 1.14zm-5.776 23.913c-.506.269-1.29-.218-1.751-1.087-.43-.722-.49-.106-.743-.486-.53-.792-1.105-2.43-.905-2.479.198-.093.61.918 1.101 1.224.269.167.32-.225.625-.318.505-.269 1.289.218 1.75 1.087.463.868.428 1.79-.077 2.059zm19.822 5.157c-.377-.58.074-1.544 1.009-2.15.934-.607 1.997-.628 2.374-.047.377.58-.074 1.543-1.009 2.15-.934.607-1.997.628-2.374.047zm-6.017 2.717c-.038-.435.709-.856 1.669-.94s1.768.2 1.806.635-.709.856-1.669.94-1.768-.2-1.806-.635z" fill="#bbb"/><g fill="#999"><path d="m32.492 5.568h1v23.115h-1z"/><path d="m37.545 4.484h1.017v1.225h-1.017zm0 2.402h1.017v6.26h-1.017zm2.439 0h1.016v1.08h.033c.193-.38.538-.686 1.032-.916a3.812 3.812 0 0 1 1.63-.346c.581 0 1.068.056 1.46.17.393.113.708.273.945.479.236.206.403.459.5.758.097.3.145.635.145 1.007v4.028h-1.015v-3.907a2.78 2.78 0 0 0 -.097-.746 1.41 1.41 0 0 0 -.34-.6 1.635 1.635 0 0 0 -.653-.4c-.274-.098-.616-.146-1.024-.146-.41 0-.772.054-1.09.164a2.438 2.438 0 0 0 -.807.448c-.22.19-.392.417-.516.68a2.164 2.164 0 0 0 -.202.855v3.652h-1.016v-6.26zm9.78 0h1.695v.643h-1.694v4.222c0 .25.045.446.137.588.091.141.32.22.686.236.29 0 .58-.012.871-.036v.643c-.15 0-.301.004-.452.012-.15.008-.301.012-.452.012-.677 0-1.15-.099-1.42-.297-.269-.198-.398-.564-.387-1.098v-4.281h-1.452v-.643h1.452v-1.88h1.017v1.88zm8.636 2.693a2.161 2.161 0 0 0 -.202-.837 2.217 2.217 0 0 0 -.524-.71 2.604 2.604 0 0 0 -.823-.497 3.012 3.012 0 0 0 -1.098-.188c-.42 0-.79.062-1.113.188a2.604 2.604 0 0 0 -.823.497 2.416 2.416 0 0 0 -.54.716 2.79 2.79 0 0 0 -.267.831zm-5.39.643c0 .275.051.56.153.855.103.295.267.56.493.795a2.7 2.7 0 0 0 .855.582c.344.154.758.23 1.242.23.743 0 1.324-.145 1.743-.436.42-.291.71-.68.872-1.165h1.016c-.215.712-.61 1.262-1.186 1.65-.575.388-1.39.582-2.445.582-.656 0-1.223-.086-1.702-.26s-.869-.413-1.17-.716a2.87 2.87 0 0 1 -.67-1.056 3.688 3.688 0 0 1 -.218-1.267 3.5 3.5 0 0 1 .218-1.213c.146-.397.369-.75.67-1.062.301-.311.691-.562 1.17-.752s1.046-.285 1.702-.285c.667 0 1.238.1 1.71.303.474.202.859.467 1.155.795.296.327.508.703.637 1.128.13.425.183.855.162 1.292zm7.264-3.336h.936v1.468h.032c.258-.51.659-.902 1.202-1.177s1.192-.4 1.945-.376v.764a4.005 4.005 0 0 0 -1.26.14 3.07 3.07 0 0 0 -.975.467 2.179 2.179 0 0 0 -.638.722c-.15.279-.226.584-.226.915v3.337h-1.016zm4.843 0h1.016v1.08h.033c.193-.38.537-.686 1.032-.916a3.812 3.812 0 0 1 1.63-.346c.581 0 1.068.056 1.46.17.393.113.708.273.945.479.236.206.403.459.5.758.097.3.145.635.145 1.007v4.028h-1.017v-3.907c0-.267-.032-.515-.096-.746a1.41 1.41 0 0 0 -.34-.6 1.635 1.635 0 0 0 -.653-.4c-.274-.098-.616-.146-1.024-.146-.41 0-.772.054-1.09.164a2.438 2.438 0 0 0 -.807.448c-.22.19-.392.417-.516.68a2.164 2.164 0 0 0 -.202.855v3.652h-1.016zm8.07 1.917c.032-.364.135-.68.307-.947s.406-.485.702-.655a3.45 3.45 0 0 1 1.04-.376c.399-.08.84-.121 1.324-.121.365 0 .731.026 1.097.079.366.052.694.151.984.297.29.145.528.35.71.613.183.262.275.604.275 1.025v3.324c0 .307.199.46.597.46.118 0 .226-.016.323-.048v.643a4.067 4.067 0 0 1 -.662.049 1.98 1.98 0 0 1 -.621-.08.825.825 0 0 1 -.363-.224.728.728 0 0 1 -.17-.345 2.246 2.246 0 0 1 -.04-.443h-.032a5.621 5.621 0 0 1 -.557.54 2.74 2.74 0 0 1 -.63.394 3.496 3.496 0 0 1 -.79.243 5.703 5.703 0 0 1 -1.057.084c-.388 0-.75-.034-1.09-.103a2.838 2.838 0 0 1 -.887-.327 1.735 1.735 0 0 1 -.597-.57 1.504 1.504 0 0 1 -.218-.82c0-.436.13-.778.387-1.024.259-.247.6-.435 1.025-.564a7.45 7.45 0 0 1 1.436-.273c.533-.053 1.073-.104 1.622-.152.215-.016.403-.036.565-.06a1.18 1.18 0 0 0 .403-.128.644.644 0 0 0 .25-.249.837.837 0 0 0 .09-.412c0-.26-.057-.471-.17-.637a1.175 1.175 0 0 0 -.468-.394 2.292 2.292 0 0 0 -.694-.2 6.202 6.202 0 0 0 -.847-.055c-.646 0-1.173.115-1.582.346-.409.23-.624.6-.645 1.11zm5.422.922h-.032c-.065.089-.188.153-.371.194a4.87 4.87 0 0 1 -.484.085c-.43.056-.875.107-1.332.151a9.428 9.428 0 0 0 -1.25.2c-.377.09-.686.217-.928.383a.809.809 0 0 0 -.363.71c0 .193.05.365.153.515.102.15.24.279.411.388.173.11.372.192.598.249.225.056.457.085.693.085.388 0 .759-.045 1.114-.134s.664-.218.928-.388a2.08 2.08 0 0 0 .63-.619c.155-.242.233-.517.233-.825zm4.15-2.84h1.694v.644h-1.695v4.222c0 .25.046.446.137.588.092.141.32.22.686.236.29 0 .581-.012.872-.036v.643c-.151 0-.302.004-.452.012s-.301.012-.452.012c-.678 0-1.151-.099-1.42-.297-.27-.198-.398-.564-.387-1.098v-4.281h-1.453v-.643h1.453v-1.88h1.016v1.88zm2.664-2.401h1.016v1.225h-1.016zm0 2.402h1.016v6.26h-1.016zm5.972.46c-.484 0-.909.078-1.275.231-.365.154-.67.356-.911.607-.242.25-.425.536-.549.855a2.68 2.68 0 0 0 -.186.977c0 .331.062.657.186.976.124.32.307.605.549.856.242.25.546.452.911.606.366.154.791.23 1.275.23s.91-.076 1.275-.23c.366-.154.67-.356.912-.606a2.55 2.55 0 0 0 .549-.856 2.7 2.7 0 0 0 .185-.976 2.7 2.7 0 0 0 -.185-.977 2.543 2.543 0 0 0 -.55-.855 2.702 2.702 0 0 0 -.91-.607c-.367-.153-.792-.23-1.276-.23zm0-.642c.635 0 1.197.089 1.687.267s.9.416 1.234.715c.334.3.586.65.759 1.05.172.4.258.827.258 1.28s-.086.88-.258 1.28c-.173.4-.425.75-.759 1.049-.333.3-.745.536-1.234.71-.49.174-1.052.26-1.687.26-.634 0-1.197-.086-1.686-.26a3.655 3.655 0 0 1 -1.235-.71 2.976 2.976 0 0 1 -.758-1.05 3.206 3.206 0 0 1 -.258-1.28c0-.452.086-.879.258-1.28.172-.4.425-.75.758-1.049a3.74 3.74 0 0 1 1.235-.715c.49-.178 1.052-.267 1.686-.267zm4.924.182h1.017v1.08h.032c.194-.38.538-.686 1.033-.916a3.812 3.812 0 0 1 1.63-.346c.58 0 1.067.056 1.46.17.393.113.707.273.944.479s.403.459.5.758c.097.3.145.635.145 1.007v4.028h-1.016v-3.907a2.78 2.78 0 0 0 -.097-.746 1.41 1.41 0 0 0 -.339-.6 1.635 1.635 0 0 0 -.653-.4c-.275-.098-.616-.146-1.025-.146s-.772.054-1.09.164a2.423 2.423 0 0 0 -.806.448 2.04 2.04 0 0 0 -.517.68 2.164 2.164 0 0 0 -.201.855v3.652h-1.017zm8.07 1.917c.033-.364.135-.68.307-.947s.406-.485.702-.655a3.47 3.47 0 0 1 1.04-.376c.399-.08.84-.121 1.324-.121.366 0 .732.026 1.097.079.366.052.694.151.985.297.29.145.527.35.71.613.183.262.274.604.274 1.025v3.324c0 .307.2.46.597.46.118 0 .226-.016.323-.048v.643a4.067 4.067 0 0 1 -.662.049 1.98 1.98 0 0 1 -.621-.08.825.825 0 0 1 -.363-.224.728.728 0 0 1 -.17-.345 2.246 2.246 0 0 1 -.04-.443h-.032a5.621 5.621 0 0 1 -.557.54 2.74 2.74 0 0 1 -.63.394 3.496 3.496 0 0 1 -.79.243 5.703 5.703 0 0 1 -1.057.084c-.387 0-.75-.034-1.09-.103a2.838 2.838 0 0 1 -.887-.327 1.735 1.735 0 0 1 -.597-.57 1.504 1.504 0 0 1 -.218-.82c0-.436.13-.778.388-1.024.258-.247.6-.435 1.024-.564.425-.13.904-.22 1.437-.273a136.52 136.52 0 0 1 1.621-.152c.215-.016.404-.036.565-.06.162-.025.296-.067.404-.128a.644.644 0 0 0 .25-.249.837.837 0 0 0 .088-.412c0-.26-.056-.471-.169-.637a1.175 1.175 0 0 0 -.468-.394 2.292 2.292 0 0 0 -.694-.2 6.202 6.202 0 0 0 -.847-.055c-.646 0-1.173.115-1.582.346-.408.23-.623.6-.645 1.11zm5.422.922h-.032c-.064.089-.188.153-.371.194a4.87 4.87 0 0 1 -.484.085c-.43.056-.874.107-1.331.151a9.428 9.428 0 0 0 -1.251.2c-.377.09-.686.217-.928.383a.809.809 0 0 0 -.363.71c0 .193.051.365.153.515.103.15.24.279.412.388a2 2 0 0 0 .597.249c.226.056.457.085.694.085a4.56 4.56 0 0 0 1.113-.134c.355-.089.665-.218.928-.388a2.07 2.07 0 0 0 .63-.619c.155-.242.233-.517.233-.825zm2.552-5.241h1.017v8.662h-1.017zm5.755-1.208h1.017v4.074h.032c.108-.257.261-.481.46-.674.2-.193.428-.356.686-.489s.538-.231.84-.296c.3-.064.602-.096.903-.096.635 0 1.186.101 1.654.303a3.34 3.34 0 0 1 1.17.819c.312.344.543.743.694 1.197.15.454.226.934.226 1.438 0 .505-.076.984-.226 1.439-.15.454-.382.853-.694 1.197a3.264 3.264 0 0 1 -1.17.812c-.468.197-1.02.296-1.654.296-.678 0-1.283-.133-1.816-.4-.532-.265-.917-.646-1.153-1.142h-.033v1.35h-.936v-9.829zm6.665 6.276c0-.367-.051-.731-.153-1.094a2.811 2.811 0 0 0 -.484-.97 2.53 2.53 0 0 0 -.848-.695c-.344-.18-.758-.269-1.242-.269-.538 0-.993.09-1.364.269-.37.179-.672.41-.903.695a2.668 2.668 0 0 0 -.5.97 4.014 4.014 0 0 0 0 2.188c.102.363.268.686.5.97.23.285.532.517.903.696s.826.268 1.364.268c.484 0 .898-.09 1.242-.268a2.53 2.53 0 0 0 .848-.695c.22-.285.382-.608.484-.97a4.03 4.03 0 0 0 .153-1.095zm8.07-.495a2.725 2.725 0 0 0 -.201-.95 2.521 2.521 0 0 0 -.525-.805 2.568 2.568 0 0 0 -.823-.564 2.695 2.695 0 0 0 -1.097-.214c-.42 0-.79.072-1.113.214a2.55 2.55 0 0 0 -.823.564 2.738 2.738 0 0 0 -.541.812 3.504 3.504 0 0 0 -.266.943h5.39zm-5.39.73c0 .311.052.635.154.97.102.334.266.635.492.901s.511.486.855.66c.345.175.759.262 1.243.262.742 0 1.323-.165 1.743-.495s.71-.771.871-1.322h1.017c-.215.808-.61 1.432-1.186 1.872s-1.39.66-2.445.66c-.656 0-1.224-.098-1.702-.295a3.086 3.086 0 0 1 -1.17-.812 3.34 3.34 0 0 1 -.67-1.197 4.693 4.693 0 0 1 -.218-1.439c0-.468.073-.926.218-1.376a3.49 3.49 0 0 1 .67-1.204 3.276 3.276 0 0 1 1.17-.854c.478-.215 1.046-.323 1.702-.323.667 0 1.237.115 1.71.344.474.23.858.53 1.154.902.296.371.509.798.638 1.28.129.481.183.97.161 1.465h-6.406zm8.878-3.785h1.694v.729h-1.694v4.79c0 .284.046.506.137.667.092.16.32.25.686.268.29 0 .58-.014.871-.041v.73c-.15 0-.3.004-.451.013a7.43 7.43 0 0 1 -.452.014c-.678 0-1.151-.112-1.42-.337-.27-.225-.398-.64-.388-1.246v-4.858h-1.452v-.731h1.452v-2.131h1.017v2.134zm4.262 0h1.694v.729h-1.694v4.79c0 .284.046.506.137.667.092.16.32.25.686.268.29 0 .58-.014.871-.041v.73c-.15 0-.3.004-.451.013a7.43 7.43 0 0 1 -.452.014c-.678 0-1.151-.112-1.42-.337-.27-.225-.398-.64-.388-1.246v-4.858h-1.452v-.731h1.452v-2.131h1.017v2.134zm2.664-2.726h1.017v1.39h-1.017zm0 2.726h1.017v7.101h-1.017zm2.44 0h1.016v1.224h.032c.194-.43.538-.777 1.033-1.039a3.434 3.434 0 0 1 1.63-.392c.58 0 1.067.064 1.46.193.393.128.707.31.944.543.237.234.403.521.5.86.097.34.145.72.145 1.143v4.57h-1.016v-4.434c0-.302-.032-.584-.097-.846a1.666 1.666 0 0 0 -.339-.681 1.618 1.618 0 0 0 -.653-.454c-.275-.11-.616-.166-1.025-.166a2.98 2.98 0 0 0 -1.09.186 2.37 2.37 0 0 0 -.806.51 2.3 2.3 0 0 0 -.517.77 2.73 2.73 0 0 0 -.201.97v4.143h-1.017v-7.1zm15.202 6.523c0 .523-.067.996-.202 1.418-.134.422-.347.78-.637 1.073-.29.294-.67.519-1.138.674-.468.156-1.04.234-1.718.234-.42 0-.829-.04-1.227-.123a3.832 3.832 0 0 1 -1.073-.386 2.522 2.522 0 0 1 -.79-.667 1.8 1.8 0 0 1 -.364-.97h1.017c.054.266.159.488.315.667s.344.323.564.433c.221.11.466.19.735.241.269.05.543.076.823.076.946 0 1.63-.23 2.05-.688.419-.459.628-1.12.628-1.982v-.963h-.032c-.237.44-.583.793-1.04 1.06-.458.265-.993.399-1.606.399-.667 0-1.238-.095-1.71-.283a3.158 3.158 0 0 1 -1.17-.777 3.013 3.013 0 0 1 -.67-1.163c-.14-.445-.21-.92-.21-1.425 0-.486.083-.947.25-1.383s.409-.816.726-1.142.71-.583 1.178-.77c.468-.189 1.003-.283 1.606-.283.312 0 .605.037.88.11a3.041 3.041 0 0 1 1.355.77c.177.175.314.359.411.551h.032v-1.224h1.017zm-3.695-.234c.44 0 .828-.08 1.162-.24a2.56 2.56 0 0 0 1.347-1.535c.113-.34.17-.688.17-1.046 0-.349-.049-.698-.146-1.046a2.802 2.802 0 0 0 -.468-.95 2.4 2.4 0 0 0 -.83-.688c-.34-.174-.751-.262-1.235-.262s-.899.085-1.243.255a2.531 2.531 0 0 0 -1.347 1.61 3.868 3.868 0 0 0 -.154 1.08c0 .359.054.707.162 1.047.107.34.274.64.5.901.226.262.511.473.855.633.345.16.753.241 1.227.241zm-66.217 11.153c.032-.422.134-.788.306-1.098.173-.31.407-.563.702-.76a3.173 3.173 0 0 1 1.041-.437c.398-.093.84-.14 1.323-.14.366 0 .732.03 1.098.091s.694.176.984.345.527.406.71.711.275.702.275 1.19v3.857c0 .357.199.535.597.535a.886.886 0 0 0 .322-.056v.746a3.508 3.508 0 0 1 -.662.056 1.74 1.74 0 0 1 -.62-.091.819.819 0 0 1 -.364-.26.904.904 0 0 1 -.17-.402 3.014 3.014 0 0 1 -.04-.514h-.032a6.113 6.113 0 0 1 -.556.627 2.717 2.717 0 0 1 -.63.457 3.153 3.153 0 0 1 -.79.282 4.935 4.935 0 0 1 -1.057.098c-.388 0-.75-.04-1.09-.12a2.606 2.606 0 0 1 -.887-.38 1.882 1.882 0 0 1 -.597-.661 1.963 1.963 0 0 1 -.218-.95c0-.507.129-.904.387-1.19s.6-.504 1.025-.655c.425-.15.903-.255 1.436-.316s1.073-.12 1.622-.176a7.99 7.99 0 0 0 .565-.07c.161-.029.295-.078.403-.149a.704.704 0 0 0 .25-.288c.06-.122.089-.282.089-.479 0-.3-.057-.547-.17-.739a1.24 1.24 0 0 0 -.468-.458 2.059 2.059 0 0 0 -.693-.232 5.359 5.359 0 0 0 -.848-.063c-.645 0-1.172.134-1.581.401-.409.268-.624.697-.646 1.288zm5.422 1.07h-.032c-.065.103-.189.179-.372.225a4.26 4.26 0 0 1 -.484.099c-.43.066-.874.124-1.331.176a8.296 8.296 0 0 0 -1.25.232 2.563 2.563 0 0 0 -.928.444c-.243.192-.364.467-.364.823 0 .226.052.425.154.599.102.173.24.324.411.45.172.127.371.223.597.289s.458.098.694.098c.388 0 .759-.051 1.114-.154.355-.104.664-.254.928-.451a2.25 2.25 0 0 0 .629-.718c.156-.282.234-.6.234-.957zm7.445-1.168a1.5 1.5 0 0 0 -.193-.711 1.505 1.505 0 0 0 -.476-.5 2.116 2.116 0 0 0 -.686-.289 3.57 3.57 0 0 0 -.823-.091c-.226 0-.455.02-.686.063a2.313 2.313 0 0 0 -.638.211c-.193.099-.35.228-.468.387a.965.965 0 0 0 -.177.592c0 .197.056.363.17.5.112.136.255.25.427.345.172.093.36.17.565.232.204.06.392.11.565.148l1.355.267c.29.038.578.106.863.204.286.099.538.228.759.387.22.16.4.357.54.592.14.234.21.511.21.83 0 .395-.102.73-.306 1.007a2.373 2.373 0 0 1 -.783.676 3.617 3.617 0 0 1 -1.073.373c-.398.075-.79.112-1.178.112-.98 0-1.772-.201-2.38-.605s-.955-1.051-1.041-1.943h1.016c.044.6.294 1.054.75 1.359.458.305 1.026.457 1.703.457.248 0 .503-.023.767-.07.263-.047.508-.127.734-.24a1.69 1.69 0 0 0 .557-.429.965.965 0 0 0 .218-.64.92.92 0 0 0 -.154-.542 1.254 1.254 0 0 0 -.411-.366 2.779 2.779 0 0 0 -.59-.247 8.15 8.15 0 0 0 -.669-.169l-1.307-.253a8.179 8.179 0 0 1 -.92-.26 3.074 3.074 0 0 1 -.734-.367 1.597 1.597 0 0 1 -.492-.535c-.119-.21-.178-.471-.178-.781 0-.366.094-.68.283-.943.188-.263.433-.474.734-.634a3.69 3.69 0 0 1 1.009-.352c.37-.075.74-.112 1.105-.112.42 0 .81.047 1.17.14.36.094.678.24.952.437s.492.441.653.732c.162.29.253.633.275 1.028zm7.171 0a1.5 1.5 0 0 0 -.193-.711 1.505 1.505 0 0 0 -.477-.5 2.116 2.116 0 0 0 -.685-.289 3.57 3.57 0 0 0 -.823-.091c-.226 0-.455.02-.686.063a2.313 2.313 0 0 0 -.638.211c-.193.099-.35.228-.468.387a.965.965 0 0 0 -.177.592c0 .197.056.363.17.5.112.136.255.25.427.345.172.093.36.17.565.232.204.06.392.11.565.148l1.355.267c.29.038.578.106.863.204.286.099.538.228.759.387.22.16.4.357.54.592.14.234.21.511.21.83 0 .395-.102.73-.306 1.007a2.373 2.373 0 0 1 -.783.676 3.617 3.617 0 0 1 -1.073.373c-.398.075-.79.112-1.178.112-.98 0-1.773-.201-2.38-.605-.608-.404-.955-1.051-1.041-1.943h1.016c.043.6.294 1.054.75 1.359.458.305 1.026.457 1.703.457.248 0 .503-.023.767-.07.263-.047.508-.127.734-.24a1.69 1.69 0 0 0 .557-.429.965.965 0 0 0 .218-.64.92.92 0 0 0 -.154-.542 1.254 1.254 0 0 0 -.411-.366 2.779 2.779 0 0 0 -.59-.247 8.15 8.15 0 0 0 -.669-.169l-1.307-.253a8.179 8.179 0 0 1 -.92-.26 3.074 3.074 0 0 1 -.734-.367 1.597 1.597 0 0 1 -.492-.535c-.119-.21-.178-.471-.178-.781 0-.366.094-.68.283-.943.188-.263.433-.474.734-.634s.637-.277 1.008-.352c.372-.075.74-.112 1.106-.112.42 0 .81.047 1.17.14.36.094.678.24.952.437s.492.441.653.732c.162.29.253.633.275 1.028zm5.703-1.591c-.484 0-.91.089-1.275.267a2.72 2.72 0 0 0 -.912.704 3.042 3.042 0 0 0 -.549.993 3.558 3.558 0 0 0 0 2.266c.124.371.307.702.55.993.241.29.545.526.91.704.367.178.792.267 1.276.267s.909-.089 1.274-.267c.366-.178.67-.413.912-.704s.425-.622.549-.993a3.558 3.558 0 0 0 0-2.266 3.042 3.042 0 0 0 -.549-.993 2.714 2.714 0 0 0 -.912-.704c-.365-.178-.79-.267-1.274-.267zm0-.746c.634 0 1.196.103 1.686.31.49.206.901.483 1.234.83.334.347.587.753.759 1.218.172.464.258.96.258 1.485a4.24 4.24 0 0 1 -.258 1.485 3.48 3.48 0 0 1 -.759 1.218 3.573 3.573 0 0 1 -1.234.824c-.49.202-1.052.302-1.686.302-.635 0-1.197-.1-1.687-.302a3.573 3.573 0 0 1 -1.234-.824 3.485 3.485 0 0 1 -.759-1.218 4.24 4.24 0 0 1 -.258-1.485c0-.526.086-1.02.258-1.485.173-.465.425-.87.759-1.218a3.655 3.655 0 0 1 1.234-.83c.49-.207 1.052-.31 1.687-.31zm10.737 2.492c-.14-.545-.398-.972-.775-1.282-.376-.31-.903-.464-1.581-.464-.484 0-.91.089-1.275.267a2.72 2.72 0 0 0 -.912.704 3.042 3.042 0 0 0 -.548.993 3.558 3.558 0 0 0 0 2.266c.123.371.306.702.548.993.242.29.546.526.912.704s.79.267 1.275.267c.312 0 .608-.051.887-.154.28-.104.528-.247.743-.43s.392-.401.532-.655c.14-.253.226-.53.258-.83h1.017c-.14.882-.51 1.57-1.113 2.062-.603.493-1.377.74-2.324.74-.635 0-1.197-.101-1.686-.303a3.573 3.573 0 0 1 -1.235-.824 3.485 3.485 0 0 1 -.758-1.218 4.24 4.24 0 0 1 -.259-1.485c0-.526.087-1.02.259-1.485s.425-.87.758-1.218a3.655 3.655 0 0 1 1.235-.83c.49-.207 1.051-.31 1.686-.31.893 0 1.649.206 2.267.62.619.412.987 1.036 1.106 1.872zm1.926-5.069h1.017v1.422h-1.017zm0 2.788h1.017v7.264h-1.017zm2.282 2.224c.032-.422.134-.788.306-1.098s.406-.563.702-.76a3.173 3.173 0 0 1 1.041-.437c.398-.093.84-.14 1.323-.14.366 0 .732.03 1.098.091s.694.176.984.345.527.406.71.711.274.702.274 1.19v3.857c0 .357.2.535.598.535a.886.886 0 0 0 .322-.056v.746a3.508 3.508 0 0 1 -.662.056 1.74 1.74 0 0 1 -.62-.091.819.819 0 0 1 -.364-.26.904.904 0 0 1 -.17-.402 3.014 3.014 0 0 1 -.04-.514h-.032a6.113 6.113 0 0 1 -.557.627 2.717 2.717 0 0 1 -.629.457 3.153 3.153 0 0 1 -.79.282 4.935 4.935 0 0 1 -1.058.098c-.387 0-.75-.04-1.089-.12a2.606 2.606 0 0 1 -.887-.38 1.882 1.882 0 0 1 -.597-.661 1.963 1.963 0 0 1 -.218-.95c0-.507.129-.904.387-1.19s.6-.504 1.025-.655c.425-.15.903-.255 1.436-.316.532-.061 1.073-.12 1.622-.176a7.99 7.99 0 0 0 .565-.07c.16-.029.295-.078.403-.149a.704.704 0 0 0 .25-.288c.06-.122.089-.282.089-.479 0-.3-.057-.547-.17-.739a1.24 1.24 0 0 0 -.468-.458 2.059 2.059 0 0 0 -.693-.232 5.359 5.359 0 0 0 -.848-.063c-.645 0-1.172.134-1.581.401-.409.268-.624.697-.646 1.288h-1.016zm5.422 1.07h-.032c-.065.103-.189.179-.372.225-.183.047-.344.08-.484.099-.43.066-.874.124-1.331.176a8.296 8.296 0 0 0 -1.25.232 2.563 2.563 0 0 0 -.929.444c-.242.192-.363.467-.363.823 0 .226.051.425.154.599a1.5 1.5 0 0 0 .411.45c.172.127.371.223.597.289s.457.098.694.098c.387 0 .759-.051 1.114-.154a2.88 2.88 0 0 0 .927-.451 2.25 2.25 0 0 0 .63-.718c.156-.282.234-.6.234-.957zm4.072-3.294h1.695v.746h-1.695v4.9c0 .29.046.518.138.682.091.164.32.256.685.275.29 0 .581-.014.872-.043v.747c-.15 0-.301.004-.452.014a6.8 6.8 0 0 1 -.452.014c-.678 0-1.15-.115-1.42-.345-.269-.23-.398-.655-.387-1.274v-4.97h-1.453v-.746h1.453v-2.182h1.016zm2.588-2.788h1.017v1.422h-1.017zm0 2.788h1.017v7.264h-1.017zm5.897.535c-.484 0-.91.089-1.275.267a2.72 2.72 0 0 0 -.912.704 3.042 3.042 0 0 0 -.549.993 3.558 3.558 0 0 0 0 2.266c.124.371.307.702.55.993.241.29.545.526.91.704.367.178.792.267 1.276.267s.909-.089 1.274-.267c.366-.178.67-.413.912-.704s.425-.622.549-.993a3.558 3.558 0 0 0 0-2.266 3.042 3.042 0 0 0 -.549-.993 2.714 2.714 0 0 0 -.912-.704c-.365-.178-.79-.267-1.274-.267zm0-.746c.634 0 1.196.103 1.686.31.49.206.9.483 1.234.83s.587.753.759 1.218c.172.464.258.96.258 1.485a4.24 4.24 0 0 1 -.258 1.485 3.48 3.48 0 0 1 -.759 1.218 3.573 3.573 0 0 1 -1.234.824c-.49.202-1.052.302-1.686.302-.635 0-1.197-.1-1.687-.302a3.573 3.573 0 0 1 -1.234-.824 3.485 3.485 0 0 1 -.759-1.218 4.24 4.24 0 0 1 -.258-1.485c0-.526.086-1.02.258-1.485.173-.465.425-.87.759-1.218a3.655 3.655 0 0 1 1.234-.83c.49-.207 1.052-.31 1.687-.31zm4.847.21h1.016v1.254h.033c.193-.441.538-.796 1.033-1.063a3.372 3.372 0 0 1 1.63-.401c.58 0 1.067.065 1.46.197.392.131.707.316.944.556.236.24.403.532.5.88.097.347.145.737.145 1.168v4.674h-1.016v-4.533c0-.31-.033-.598-.097-.866a1.72 1.72 0 0 0 -.339-.697 1.619 1.619 0 0 0 -.654-.464c-.274-.113-.615-.17-1.024-.17a2.92 2.92 0 0 0 -1.09.19 2.373 2.373 0 0 0 -.806.522 2.35 2.35 0 0 0 -.517.788 2.848 2.848 0 0 0 -.202.993v4.237h-1.016v-7.264zm-117.294-2.351h1.017v1.39h-1.017zm0 2.725h1.017v7.102h-1.017zm2.57 0h1.015v1.225h.032c.194-.43.538-.777 1.033-1.039a3.434 3.434 0 0 1 1.63-.392c.58 0 1.068.064 1.46.193.393.128.708.31.944.543.237.234.404.521.5.86.097.34.146.72.146 1.143v4.569h-1.017v-4.432a3.5 3.5 0 0 0 -.097-.846 1.666 1.666 0 0 0 -.339-.681 1.618 1.618 0 0 0 -.653-.454c-.274-.11-.616-.166-1.025-.166a2.98 2.98 0 0 0 -1.09.186 2.37 2.37 0 0 0 -.806.51c-.22.215-.393.472-.516.77a2.73 2.73 0 0 0 -.202.97v4.143h-1.017v-7.102zm9.911 0h1.694v.73h-1.694v4.79c0 .284.046.506.137.667.092.16.32.25.686.268.29 0 .58-.014.871-.041v.73c-.15 0-.3.004-.451.013-.151.01-.302.014-.452.014-.678 0-1.151-.113-1.42-.337-.27-.225-.398-.64-.388-1.246v-4.858h-1.452v-.73h1.452v-2.133h1.017zm8.766 3.056a2.725 2.725 0 0 0 -.202-.95 2.521 2.521 0 0 0 -.524-.805 2.568 2.568 0 0 0 -.823-.564 2.695 2.695 0 0 0 -1.098-.214c-.42 0-.79.071-1.113.214-.323.142-.597.33-.823.564a2.738 2.738 0 0 0 -.54.812 3.504 3.504 0 0 0 -.267.943zm-5.39.73c0 .311.051.635.153.97.103.334.267.635.493.9.226.267.51.487.855.662.344.174.758.261 1.242.261.743 0 1.324-.165 1.743-.495.42-.33.71-.771.872-1.322h1.016c-.215.808-.61 1.432-1.186 1.872-.575.44-1.39.66-2.445.66-.656 0-1.223-.098-1.702-.295a3.086 3.086 0 0 1 -1.17-.812 3.34 3.34 0 0 1 -.67-1.198 4.693 4.693 0 0 1 -.218-1.438c0-.468.073-.926.218-1.376a3.49 3.49 0 0 1 .67-1.204 3.276 3.276 0 0 1 1.17-.854c.479-.215 1.046-.323 1.702-.323.667 0 1.238.115 1.71.344.474.23.859.53 1.155.901.296.372.508.799.637 1.28.13.482.183.97.162 1.466h-6.407zm14.43 2.738c0 .523-.067.995-.202 1.418-.134.422-.347.78-.637 1.073-.29.294-.67.518-1.138.674s-1.04.234-1.718.234c-.42 0-.829-.04-1.227-.124a3.832 3.832 0 0 1 -1.073-.385 2.522 2.522 0 0 1 -.79-.667 1.803 1.803 0 0 1 -.364-.97h1.017c.054.265.159.488.315.667s.344.323.565.433c.22.11.465.19.734.241.269.05.543.076.823.076.946 0 1.63-.23 2.05-.688.419-.459.628-1.12.628-1.982v-.963h-.032c-.236.44-.583.793-1.04 1.06-.458.265-.993.398-1.606.398-.667 0-1.237-.094-1.71-.282a3.158 3.158 0 0 1 -1.17-.777 3.013 3.013 0 0 1 -.67-1.163c-.14-.445-.21-.92-.21-1.425 0-.486.083-.947.25-1.383s.409-.816.726-1.142.71-.583 1.178-.77c.468-.189 1.003-.283 1.606-.283.312 0 .605.037.88.11.274.073.524.177.75.31s.427.286.605.46c.177.175.314.359.411.551h.032v-1.225h1.017zm-3.695-.234c.44 0 .828-.08 1.162-.24a2.56 2.56 0 0 0 1.347-1.535c.113-.34.17-.689.17-1.046 0-.349-.049-.698-.146-1.046a2.802 2.802 0 0 0 -.468-.95 2.4 2.4 0 0 0 -.83-.688c-.34-.174-.751-.262-1.235-.262s-.899.085-1.243.255-.63.392-.855.667c-.226.276-.39.59-.492.943a3.868 3.868 0 0 0 -.154 1.08c0 .358.054.707.162 1.047.107.34.274.64.5.901.226.262.511.473.855.633.345.16.753.241 1.227.241zm5.248-6.29h.936v1.666h.032a2.832 2.832 0 0 1 1.202-1.335c.544-.312 1.192-.454 1.945-.427v.867a3.556 3.556 0 0 0 -1.259.158c-.376.124-.702.3-.976.53-.275.23-.487.503-.638.82a2.39 2.39 0 0 0 -.226 1.038v3.785h-1.016zm4.715-2.725h1.017v1.39h-1.017zm0 2.725h1.017v7.102h-1.017zm4.2 0h1.694v.73h-1.695v4.79c0 .284.046.506.138.667.091.16.32.25.685.268.29 0 .581-.014.872-.041v.73c-.15 0-.301.004-.452.013a7.43 7.43 0 0 1 -.452.014c-.678 0-1.151-.113-1.42-.337-.269-.225-.398-.64-.387-1.246v-4.858h-1.453v-.73h1.453v-2.133h1.016v2.133zm1.843 0h1.08l2.744 6.056 2.566-6.056h1.016l-3.614 8.175c-.15.303-.29.553-.42.75a1.757 1.757 0 0 1 -.427.468 1.511 1.511 0 0 1 -.55.248 3.5 3.5 0 0 1 -.798.076c-.204-.01-.363-.016-.476-.02a1.133 1.133 0 0 1 -.298-.049v-.73c.118.019.234.035.346.049.113.014.23.02.347.02.226 0 .412-.027.557-.082a1.199 1.199 0 0 0 .654-.578c.075-.138.156-.29.242-.454l.355-.799z" fill-rule="nonzero"/></g></g></svg>