<svg xmlns="http://www.w3.org/2000/svg" width="48" height="24" viewBox="0 0 48 24"><g fill="none" fill-rule="evenodd"><path fill="#858488" d="M32.204 10.345a4.412 4.412 0 0 1-1-.114c-.032-.008-.219.607.34.851 1.146.5 4.27.23 5.18 1.78.91 1.324-.576 3.048-1.352 3.346-.776.299-2.931 1.247-6.071.2-1.662-.655-1.792-1.868-1.4-2.987.2-.524.631-.912 1.292-1.165a1.473 1.473 0 0 1-.528-.975c0-1.41 1.217-1.608 1.126-1.671a3.912 3.912 0 0 1-.065-.046c-.887-.641-1.454-1.618-1.454-2.714 0-1.93 1.76-3.494 3.932-3.494.69 0 1.339.158 1.903.436.013.006.747-.496 1.543-.677.714-.162 1.5-.006 1.511 0-.133.62-.306 1.344-.436 1.902.002.015-.294-.01-.59 0-.27.01-.544.058-.536.07.34.518.536 1.12.536 1.763 0 1.93-1.76 3.495-3.931 3.495zm2.032 3.89c0-.587-.873-.775-2.013-.915s-1.825-.465-1.994.127c-.098.323-.057 1.327 1.926 1.484.986.018 2.08-.11 2.08-.696zm-2.07-5.979c.672 0 1.217-.6 1.217-1.342 0-.741-.545-1.342-1.218-1.342-.672 0-1.217.6-1.217 1.342 0 .741.545 1.342 1.217 1.342zM12.812 3.709h2.425l.198.887c.994-.78 1.882-1.17 2.664-1.17 2.08 0 2.654.962 2.672 1.39.001.028.96-1.296 3.22-1.296 2.259 0 2.833 1.686 2.926 2.108.06.277.088 2.562.083 6.856h-2.813V6.908c-.035-.38-.352-1.024-1.274-1.007-.831.021-1.486.398-1.637.765-.064.082-.064 2.021 0 5.818h-2.755V6.908c0-.645-.353-1.007-1.273-1.007-.97 0-1.618.55-1.616.643.034 1.35.034 3.33 0 5.94h-2.82V3.71zm27.89 8.954c-1.537.011-3.183-.508-3.275-2.82 0-2.295 1.85-3.075 4.132-3.075.373 0 .623.007.997 0-.017-.15.125-1.034-1.103-1.196-.666-.088-1.537.08-2.612.503l-.915-1.783c1.706-.819 3.376-1.057 5.01-.714 2.474.464 2.515 2.606 2.54 2.816.051.572 0 2.918 0 3.45 0 .3.043 1.188.13 2.66-.791-.008-1.559-.008-2.302 0-.215.078-.3-.642-.447-.642-.14 0-.795.812-2.155.8zm.252-2.245c.521.096 1.083.014 1.683-.248V8.49c-.298.059-.507.09-.627.096-.576.024-.98.048-1.187.152-.34.17-.57.436-.57.837 0 .402.158.752.7.843z"/><path fill="#00A99D" d="M0 19h48v5H0z"/><path fill="#FFF" d="M30.771 23.036V20.55h.41v2.13h.811v.356h-1.22zm2.01 0V20.55h.41v2.486h-.41zm2.622-.71v.155a.5.5 0 0 1-.05.218.604.604 0 0 1-.14.183.676.676 0 0 1-.461.174c-.078 0-.157-.009-.237-.027a.557.557 0 0 1-.376-.278.565.565 0 0 1-.062-.281v-1.368a.536.536 0 0 1 .185-.409.65.65 0 0 1 .21-.12.803.803 0 0 1 .272-.044c.193 0 .35.055.47.164a.58.58 0 0 1 .189.43v.14h-.41v-.12a.26.26 0 0 0-.068-.18.235.235 0 0 0-.185-.078c-.102 0-.17.028-.203.082a.392.392 0 0 0-.05.208v1.27c0 .073.018.133.054.182.036.049.101.073.195.073a.339.339 0 0 0 .086-.012.272.272 0 0 0 .087-.04.215.215 0 0 0 .06-.077.275.275 0 0 0 .024-.122v-.122h.41zm.845.71V20.55h1.221v.335h-.811v.73h.707v.335h-.707v.73h.811v.356h-1.22zm1.982 0V20.55h.394l.619 1.498h.008V20.55h.41v2.486h-.386l-.627-1.494h-.008v1.494h-.41zm3.638-1.77h-.41v-.08a.344.344 0 0 0-.066-.212c-.045-.059-.119-.089-.223-.089a.29.29 0 0 0-.137.028.257.257 0 0 0-.084.07.273.273 0 0 0-.044.103.587.587 0 0 0-.012.12c0 .05.002.09.006.123a.21.21 0 0 0 .03.087c.016.025.04.048.07.066.03.019.073.037.127.056l.313.108c.09.03.165.066.22.107.057.04.101.088.133.141.03.056.05.12.06.19.011.071.017.152.017.243 0 .105-.012.202-.037.291a.578.578 0 0 1-.116.229.571.571 0 0 1-.22.154.882.882 0 0 1-.334.055.827.827 0 0 1-.277-.045.675.675 0 0 1-.221-.126.616.616 0 0 1-.147-.186.504.504 0 0 1-.054-.232v-.133h.41v.112c0 .065.022.124.066.176.044.052.118.078.223.078a.39.39 0 0 0 .162-.026.206.206 0 0 0 .09-.075.25.25 0 0 0 .039-.117 1.734 1.734 0 0 0-.002-.312.25.25 0 0 0-.032-.101.215.215 0 0 0-.075-.063 1.017 1.017 0 0 0-.122-.053l-.293-.104c-.177-.063-.296-.146-.356-.25a.764.764 0 0 1-.09-.39c0-.092.015-.18.044-.264a.604.604 0 0 1 .347-.361.81.81 0 0 1 .312-.055.769.769 0 0 1 .498.178c.123.112.185.24.185.384v.175zm.817 1.77V20.55h1.221v.335h-.811v.73h.707v.335h-.707v.73h.811v.356h-1.221zm1.998 0V20.55h.607c.236 0 .414.056.536.168.122.111.183.27.183.474v1.163c0 .233-.065.404-.195.515-.13.11-.317.166-.56.166h-.57zm.41-2.15V22.7h.189c.115 0 .197-.025.245-.075.048-.05.072-.128.072-.235v-1.198a.34.34 0 0 0-.068-.226c-.046-.054-.129-.08-.25-.08h-.188z"/><path fill="#B20215" d="M10.85 14.041c-.087.155-.153.24-.204.28-.691.542-2.567 2.364-2.567 1.592a90.1 90.1 0 0 1 2.865-7.862c.041 3.292.041 5.162 0 5.61-.009.095-.009.226-.095.38zm-8.361-3.219c-.416 0 1.05-1.625 1.938-2.47.291-.277.785-.139.785-.275 0-.111-.583-.037-.785-.248-.803-.84-2.306-2.479-1.865-2.479.368 0 3.135.915 8.3 2.746-5.214 1.817-8.005 2.726-8.373 2.726zM10.85 2.06c.085.154.085.285.094.38.041.448.041 2.318 0 5.61A90.1 90.1 0 0 1 8.079.189c0-.772 1.876 1.05 2.567 1.593.05.04.117.124.203.279z"/></g></svg>